<svg width="548" height="561" xmlns="http://www.w3.org/2000/svg">

 <g>
  <ellipse stroke="#ffffff" ry="2.5" rx="4" id="svg_11" cy="43.5" cx="196" fill="#ffffff"/>
  <text transform="matrix(5.02337 0 0 5.20562 -512.308 -1005.41)" stroke="#213547" xml:space="preserve" text-anchor="start" font-family="Noto Sans JP" font-size="16" stroke-width="0.75" id="svg_12" y="295.33786" x="108.51723" fill="#213547">OLD HOLDEN</text>
  <defs>
   <clipPath id="svg_18">
    <path id="svg_20" d="m4.1745,9.41539l537.64844,0l0,417.17188l-537.64844,0l0,-417.17188zm0,0"/>
   </clipPath>
  </defs>
  <g id="svg_23">
   <g id="svg_17">
    <g id="svg_21" clip-rule="nonzero" clip-path="url(#svg_18)">
     <path id="svg_22" fill-rule="nonzero" fill="#213547" d="m353.7995,24.3607c13.375,6.125 21,12.375 30.5,12.75c4.37109,0.17578 11.125,-3.375 13.25,-4.25c8.375,-4.75 10.375,-1.125 10.25,10.625c-0.125,11.75 -6.625,23.625 -6.625,34.25c0,7 2.5,11.25 5.125,15.5c2.625,4.25 6.125,8.75 4.75,9.625c-1.375,0.875 -3.625,1.375 -5.5,0.125c-1.875,-1.25 -3.875,-1.375 -4.25,-0.625c-0.375,0.75 2.25,4.875 4.5,6.5c2.25,1.625 9,10.375 10.25,14.5c1.25,4.125 2.375,12 0.5,13.375c-1.875,1.375 -5,-2.5 -6.25,-4.875c-1.25,-2.375 -5.625,-6.375 -7.875,-6.875c-2.25,-0.5 -1.125,2 0,3.875c1.625,4.25 10.375,12.25 14.25,25.75c3.875,13.5 1.125,37.25 0.875,41.375c-0.25,4.125 -3.75,6.25 -5.5,3.625c-1.17578,-1.76172 -5.375,-5.75 -7.125,-7.75c-1.75,-2 -1.25,0.125 1.25,4c3.375,7.75 12.25,17.875 14.875,20.875c2.625,3 3.125,4.125 1.875,5.5c-9,8.625 -18.75,13.875 -30.25,13.5c-11.5,-0.375 -23,-8 -25.5,-11.5c-2.5,-3.5 -5.375,-6.625 -5.5,-0.375c-0.125,6.25 0.75,15.5 3.375,22.75c1.17578,3.2461 4,6.875 2.125,8.375c-3.15625,2.52735 -13.62109,2.92188 -20.25,1.125c-21.21875,-5.74609 -27.75,-20.875 -28.75,-23.375c-1,-2.5 -3.125,-2.25 -3.75,0.875c-0.625,3.125 -0.875,14 -0.375,18.125c0.5,4.125 -1.125,5.75 -5.25,4.5c-4.125,-1.25 -11.625,-4.25 -17.5,-11.375c-5.875,-7.125 -9.75,-20.375 -9.875,-22.375c-0.125,-2 -1.20312,-3.94531 -2.875,-2.5c-3.75,3.25 -6.125,9.375 -6.5,13.25c-0.4375,4.52344 -1.5,5.5 -2.625,4.75c-7.125,-4.125 -9.375,-8.875 -12.25,-16.875c-2.875,-8 -2.375,-20.375 -2.25,-22.5c0.125,-2.125 -1.125,-2.875 -1.75,-2.25c-0.625,0.625 -2,1.875 -3.375,3.375c-1.375,1.5 -2.875,2 -4.125,0.75c-1.25,-1.25 -3,-8.25 -3.75,-11.25c-3,-11.5 0.99609,-17.91406 6.75,-24.625c6.75,-7.875 24,-11.5 26.75,-11.875c2.75,-0.375 1.5,-2 -1.125,-3.75c-4.25,-3.125 -8.75,-0.875 -10.5,-2c-4.56641,-2.93359 0,-6.375 3.875,-9.625c3.875,-3.25 11.25,-3 15.125,-2.75c3.875,0.25 1.625,-3.625 0.25,-5c-1.375,-1.375 -5.08984,-2.01953 -4.5,-4.125c0.875,-3.125 6.75,-4.5 11.375,-4.5c4.625,0 5.50391,-4.64843 5.75,-8.25c0.25,-3.625 -0.125,-8.125 -1.125,-13.625c-1,-5.5 -6,-6 -9.375,-5.25c-3.375,0.75 -11,6.125 -18.5,7.25c-3.44922,0.51953 -5.125,-1.125 -4.125,-4.75c1,-3.625 1.25,-7.375 1.25,-9.875c0,-2.5 -3.625,-11.625 -4.25,-14.625c-0.625,-3 3.5,-5.5 4.625,-6.5c1.125,-1 2.375,-1.125 3.125,0.5c0.75,1.625 0.875,2 2.5,4.625c1.625,2.625 5.875,7.625 12.375,4.875c6.5,-2.75 3.875,-12.25 0.125,-21.75c-3.75,-9.5 -11.875,-11.125 -15.125,-10.5c-3.25,0.625 -5,4.625 -6.375,4.625c-1.375,0 -1.375,-2.125 -1.75,-4.125c-0.375,-2 -2.375,-3.875 -3.25,-7.75c-0.875,-3.875 0.5,-8.125 1.25,-10.25c0.75,-2.125 0,-5.75 0,-8.25c0,-2.5 5.375,-3 7.125,-3c1.75,0 12.375,0.125 15.25,0c10.75,-1.625 18.5,-1.25 22.625,-0.875c4.125,0.375 5.25,-1.375 6.75,-2.5c3.75,-2.75 7.38672,-1.16406 9.5,-0.625c4.875,1.25 22.125,7.875 35.5,14zm-39.375,-3c-0.39844,1.69532 0.875,3.375 2.75,3.875c1.875,0.5 3.875,-1.25 5,-1.5c1.125,-0.25 3.625,-0.875 4.75,-1.375c-1.25,-1 -5.12891,-3.96093 -7,-4.125c-2.875,-0.25 -5,1 -5.5,3.125zm-177.5,148.875c-6.375,-0.125 -16.75,1 -23.75,-6.625c-7,-7.625 0.125,-17.25 -4.75,-23.75c-4.875,-6.5 -10.125,-6 -17.75,-6c-1.75,-1 -7.89453,-3.1875 -10.33203,-0.625c-1.625,1.71094 -0.04297,2.75 0.83203,5.5c0.875,2.75 -0.25,6.75 -0.75,8.75c-0.5,2 -2.45703,5.83594 -4.58203,4.41797c-2.30078,-1.53125 -5.29297,-1.41797 -8.29297,-1.41797c-3,0 -6.625,2.75 -9,3.75c-1.875,0.375 -6.375,0.5 -8.25,1.875c-2.57031,1.88672 -2.25,3.375 -1.75,4.125c0.5,0.75 3.25,2 4.5,3.625c1.25,1.625 2.625,7.625 3.625,8.75c1,1.125 4.25,4.5 5,5.5c0.75,1 1.25,2.25 0.375,4.375c-0.875,2.125 -3.91797,8.21094 -5.04297,10.58594c-1.125,1.75 -4.70703,5.66406 -4.95703,7.03906c-0.25,1.375 0.375,3.125 1.75,3.125c1.375,0 4.125,-0.75 6.875,1.625c2.75,2.375 7.5,5.5 12.25,5.5c4.75,0 10.875,-1.25 14.5,-3.875c1.75,-1.5 4.625,-2.5 5.25,-0.125c0.625,2.375 1,6.375 3.375,8.375c2.375,2 5.5,4.125 5.625,5.375c0.125,1.25 -0.375,4.375 2,5c2.375,0.625 4.5,-0.25 6.5,-2c2,-1.75 3,-3.25 6.125,-4.875c3.125,-1.625 8.5,-4.125 10.125,-9c1.625,-4.875 3.125,-7.875 5.25,-7.5c2.125,0.375 8.625,2.875 12.375,5.875c3.75,3 10.75,9.25 11.875,10.5c1.125,1.25 2.5,1.75 4,0.625c1.5,-1.125 0.25,-4.25 -0.125,-6.125c-0.375,-1.875 -1,-5 0.625,-4.875c1.625,0.125 6.125,0.25 9.375,5c3.25,4.75 5.70703,11.83594 9.54297,15.83594c3.83203,4 7.66406,6.16406 8.83203,4.33203c1.16797,-1.83203 -4,-10.83203 -4.66797,-15.33203c-0.66406,-4.5 4.2461,-2.53516 6.16797,-1.33594c2.66797,1.66797 6.5,3.66797 10.5,16c1.16797,2.5 4.5,10.33594 9.83203,14.83594c1.33594,0.83203 4.66797,0.5 3.33594,-2.66797c-1.33594,-3.16797 -4.83594,-18.33203 -4.66797,-20.5c0.16797,-2.16797 3.16797,-2.5 5.83203,-0.5c2.66797,2 5.83594,5.5 7.5,12.16797c1.66797,6.66406 4.83594,15 6.16797,17.33203c1.33203,2.33594 2.66797,1.83203 5.5,-1c2.83203,-2.83203 4.16797,-9.66797 4.33203,-12.16797c0.16797,-2.5 -0.66406,-8.16406 1.33594,-7.66406c2,0.5 9.02344,3.68359 8.5,12.16406c-0.83594,13.5 -18.83594,30 -29.66797,44.16797c-10.83203,14.16797 -33.83203,44.33203 -37.5,47.5c-3.66797,3.16797 -13.16797,13.16797 -25.66797,-0.5c-2.33203,-2.83203 -9.33203,-14.5 -17.33203,-14.5c-5.33203,0 -8.66797,3.33203 -11.5,5.33203c-2,0 -9.83203,1.16797 -9.83203,3c0,1.83594 3.66406,1.66797 4.66406,3.5c1,1.83594 0.61328,5.53125 1.5,7.16797c2.16797,4 1.83594,5.83203 -0.5,7.16797c-2.33203,1.33203 -10.5,5.33203 -12.5,10.33203c-2.13672,5.34375 -1.66406,10.5 -1.66406,10.5c0,0 -2,5.66797 0.5,8.16797c2.5,2.5 5.66406,-0.83594 7.5,0c1.83203,0.83203 8.83203,2.16406 10.66406,2c1.83594,-0.16797 4,1.5 4.16797,3.66406c0.16797,2.16797 0.5,2.83594 -1,6.66797c-1.5,3.83594 -0.66797,6.83203 0.5,8c1.16797,1.16797 4,-1.33203 5.16797,-2.33203c1.16406,-1 4.5,-1.83203 5.66406,-0.83203c1.16797,1 7.5,1 11.83594,-1.66797c4.33203,-2.66797 5.33203,-4.16797 6.5,-5.66797c1.16406,-1.5 3.66406,-2.33203 4.83203,-0.66406c1.16797,1.66406 4.66797,4.83203 6.16797,5.83203c1.5,1 1,2.33203 0.83203,3.5c-0.15625,1.10547 -0.83203,3.5 1.66797,3.83203c2.5,0.33594 5.33203,-3.33203 7.33203,-5c2,-1.66406 9.5,-4.33203 12.16797,-11.33203c2.66406,-7 0.33203,-13.16797 -0.16797,-15.83203c-0.5,-2.66797 0.5,-7.16797 3,-8c3.33594,-1.10938 6.16797,2.16406 6,4.5c-0.16797,2.33203 -1,5.33203 1.16797,6.33203c2.16406,1 5.33203,-5.16797 10.5,-17.66797c1,-2.33203 8.19141,-12.875 11.5,-11.83203c3.16406,1 2.66406,4.66406 1.33203,7.66406c-1.33203,3 -2.16797,8 0,9c2.16797,1 7.5,-1.33203 9.66797,-8.16406c2.16406,-6.83203 6.83203,-18.16797 10.5,-22.33203c3.66406,-4.16797 10.81641,-9.66016 11,-5.33594c0.16406,4 -4.5,13.80469 -4.5,18c0,3.33594 0.66406,3.16797 2.5,2.83594c1.83203,-0.33594 7.16406,-4.66797 10.16406,-12.66797c3,-8 7.66797,-17.83594 10,-19.83594c2.33594,-2 7.83594,-6.16406 9.83594,-0.16406c-0.16797,1.5 -0.66797,5.5 -2,8.16797c-1.33594,2.66406 -2.16797,7.83203 -0.16797,8.5c2,0.66406 7,-1.16797 10,-4.16797c3,-3 5,-4.66797 5,-4.66797c0,0 3.5,-1.66797 6.5,1c3,2.66797 60.66406,46.5 65.33203,50.33594c4.66797,3.83203 8.83594,5.83203 8.83594,12.83203c0,7 0.33203,13.33203 -9.83594,13.33203c-10.16406,0 -169.66406,0 -172.5,0c-2.83203,0 -6.83203,-0.83203 -14.16406,5.5c-3.16797,2 -7,5.5 -11.5,5.5c-4.5,0 -5.16797,-5 -5.5,-6.66406c-0.33594,-1.66797 -1.33594,-5.50391 -4.66797,-4.33594c-3.33203,1.16797 -6.5,3.66797 -10.83203,3.66797c-4.33594,0 -7.5,-1 -9.66797,-0.5c-2.16797,0.5 -5.33203,2.33203 -6.83203,3.5c-1.5,1.16797 -3.5,1.66406 -6.16797,-1.16797c-2.66797,-2.83203 -2.5,-6.16406 -6.83203,-6.16406c-4.33594,0 -54.33594,0 -58.5,0c-4.16797,0 -6.58594,-0.16797 -6.58594,6.58203c0,6.75 0,20.91797 0,23.91797c0,3 1.58594,2.83203 7.58594,2.83203c6,0 460.66406,0 464.66406,0c4,0 9.66797,1.16797 12.16797,-18.33203c2.5,-19.5 8,-57 -11.66797,-104.66797c-7,-16.33594 -17.66797,-34.5 -20,-39.83594c-2.33203,-5.33203 -3.5,-8.83203 -4,-12.16406c-0.5,-3.33594 -3,-5.33594 -4.16406,-3c-0.94141,1.88281 -1.5,5.5 -1.66797,7.83203c-0.16797,2.33203 -1.66797,5.5 -4.16797,2.16797c-2.5,-3.33594 -5.33203,-13.33594 -5.5,-19.5c-0.16406,-6.16797 2,-10.33594 0.5,-10.83594c-1.64844,-0.54687 -3.83203,0.66797 -4.83203,4.33594c-1,3.66406 -0.66406,6.83203 -2.83203,7.16406c-2.16797,0.33594 -4.00391,-3.16406 -4.83594,-7.5c-0.83203,-4.33203 -4.16406,-14.5 1.16797,-26.83203c5.33203,-12.33203 10.16797,-19.66406 18.66797,-24.83203c8.5,-5.16797 17.16797,-10.5 23,-18.66797c1.83203,-2.5 1.48437,-6.82812 -1.50391,-5.66797c-3,1.16797 -5.33203,2.5 -6.5,0.66797c-1.16406,-1.83203 1.00391,-6.83203 2.50391,-9.16797c1.5,-2.33203 7.33203,-21.83203 0.66406,-32.16406c-6.66406,-10.33594 -11.83203,-13.16797 -22,-13.16797c-10.16797,0 -21,8.5 -21.83203,20.5c-0.69531,10 3.33203,13.83594 4.83203,13.66797c1.5,-0.16797 4.16797,-14.66797 14.5,-14.66797c10.33594,0 11.83594,8.33594 11.83594,12.16797c0,3.83203 -4.33594,14.5 -9.16797,20.66406c-1.83203,2.5 -3.33203,3.83594 -4.5,4.83594c-1.16797,1 -2.5,2.33203 -4.83203,-1.16797c-2.33594,-3.5 -4.33594,-5.16797 -5.83594,-4.5c-1.5,0.66797 -0.66406,4.33203 -0.83203,7.83203c-0.16797,3.5 -0.5,9.16797 -4.16797,16.33594c-3.66406,7.16406 -16.83203,26.66797 -16.83203,42.33203c0,15.66797 10,33.16797 31.66797,59.16797c2.66406,3 19.83203,27 28.5,54.5c0.83203,2.83203 3.66406,17.66406 3.33203,22c-0.33203,4.33203 -1.16406,8.66406 -4.33203,5c-3.16797,-3.66797 -65.50391,-92.16797 -78.33594,-107.33594c-5,-6.16406 -9.5,-12.33203 -12,-15.16406c-2.5,-2.83594 -3.33203,-3.5 -6.16406,-1.5c-2.83594,2 -11.83203,5.33203 -20.5,4.33203c-8.66797,-1 -19.66797,-3 -25.66797,-7.83203c-2.83203,-1.66797 -6,-3.5 -5.16797,0.5c0.83594,4 2.33203,15.16406 13.33203,22.33203c-3,2 -8.16406,7.33203 -21.66406,7.33203c-13.5,0 -30.66406,-9.33203 -33.83203,-13.16406c-3.16797,-3.83594 -6.5,-7.83594 -6.16797,-1.33594c0.33203,6.5 2,10.83594 3.83203,14c1.83594,3.16797 0.16797,3.33594 -3.83203,2.33594c-4,-1 -20.83203,-5 -29.83203,-16.66797c-3.83594,-5.16797 -7.83203,-12.33203 -8.5,-14.5c-0.66797,-2.16797 -2.16797,-1.5 -3.16797,1.66797c-1,3.16406 -0.66797,7.33203 -0.5,9.33203c0.16797,2 -2,3 -5.66797,1.5c-3.66406,-1.5 -7.66406,-2 -15.5,-19c-7.83203,-17 -3.33203,-21.33203 -9,-21.33203c-2.16406,0.33203 -4.5,-1.5 -6.66406,-7.5c-2.16797,-6 -4.83594,-14.83594 -3.5,-23.66797c0.16406,-2.5 2.16406,-4.66797 -3.5,-4.66797c-5.66797,0 -95.41797,-0.5 -95.41797,-0.5zm27.625,161.25c-2.25,-2 -9.25,-9.5 -11.5,-11.75c-2.25,-2.25 -8.25,-7 -18.125,-7c-9.875,0 -12,7.125 -19,9.375c-3.40625,1.09766 -6.25,1.625 -7.625,6.875c-1.76562,6.74219 4.5,7.5 6,9.375c1.5,1.875 0.625,4.25 -0.875,5.5c-8.875,7.5 -13.375,13.375 -14.875,20.75c-1.5,7.375 0.51172,16.51953 0.51172,16.51953c-1.45313,0.07032 -2.91797,0.10547 -4.38672,0.10547c-49.15234,0 -90.5,-38.17578 -90.5,-87.33203c0,-35.12109 18.625,-65.16797 51.39063,-81.63281c13.14062,7.90625 26.10937,3.83984 29.48437,2.71484c3.375,-1.125 4.375,-0.375 5.25,0.5c3.5,3 6.5,8.875 7.75,10.875c3.125,6.25 8,6.75 9.625,7c3,-6.75 8.625,-10.375 12.875,-12c4.25,-1.625 6,-3 7,-4.25c2.875,-4 6.79297,-3.875 6.79297,-3.875c28.89062,14.70703 49.33203,44.35938 49.33203,79c0,15.00782 -3.71484,29.14453 -10.26953,41.54297c-3.76953,1.91797 -6.60547,-0.29297 -8.85547,-2.29297"/>
    </g>
   </g>
  </g>
 </g>
</svg>